<svg width="18" height="5" viewBox="0 0 18 5" fill="none" xmlns="http://www.w3.org/2000/svg">
<path id="Vector" d="M2.74818 0.291992C3.24446 0.291992 3.72041 0.489139 4.07133 0.840061C4.42225 1.19098 4.6194 1.66694 4.6194 2.16322C4.6194 2.6595 4.42225 3.13545 4.07133 3.48637C3.72041 3.83729 3.24446 4.03444 2.74818 4.03444C2.2519 4.03444 1.77594 3.83729 1.42502 3.48637C1.0741 3.13545 0.876953 2.6595 0.876953 2.16322C0.876953 1.66694 1.0741 1.19098 1.42502 0.840061C1.77594 0.489139 2.2519 0.291992 2.74818 0.291992ZM9.29746 0.291992C9.79374 0.291992 10.2697 0.489139 10.6206 0.840061C10.9715 1.19098 11.1687 1.66694 11.1687 2.16322C11.1687 2.6595 10.9715 3.13545 10.6206 3.48637C10.2697 3.83729 9.79374 4.03444 9.29746 4.03444C8.80118 4.03444 8.32523 3.83729 7.97431 3.48637C7.62338 3.13545 7.42624 2.6595 7.42624 2.16322C7.42624 1.66694 7.62338 1.19098 7.97431 0.840061C8.32523 0.489139 8.80118 0.291992 9.29746 0.291992ZM15.8467 0.291992C16.343 0.291992 16.819 0.489139 17.1699 0.840061C17.5208 1.19098 17.718 1.66694 17.718 2.16322C17.718 2.6595 17.5208 3.13545 17.1699 3.48637C16.819 3.83729 16.343 4.03444 15.8467 4.03444C15.3505 4.03444 14.8745 3.83729 14.5236 3.48637C14.1727 3.13545 13.9755 2.6595 13.9755 2.16322C13.9755 1.66694 14.1727 1.19098 14.5236 0.840061C14.8745 0.489139 15.3505 0.291992 15.8467 0.291992Z" fill="#FFA178"/>
</svg>
