<svg width="27" height="27" viewBox="0 0 27 27" fill="none" xmlns="http://www.w3.org/2000/svg">
<g filter="url(#filter0_i_2191_6030)">
<path d="M22.449 4.31614H22.4475L25.1141 4.84914C25.2572 4.87778 25.375 4.98279 25.4163 5.12439C25.4372 5.19318 25.4391 5.26634 25.4217 5.3361C25.4044 5.40586 25.3684 5.4696 25.3177 5.52056L23.1332 7.70666C22.8718 7.96754 22.5176 8.11403 22.1483 8.11397H20.3377L15.7873 12.666C15.8741 12.9937 15.8901 13.3363 15.8342 13.6707C15.7782 14.0052 15.6516 14.3238 15.4629 14.6055C15.2741 14.8872 15.0275 15.1255 14.7394 15.3044C14.4514 15.4833 14.1285 15.5987 13.7923 15.643C13.4561 15.6874 13.1144 15.6596 12.7898 15.5614C12.4652 15.4633 12.1652 15.2972 11.9099 15.074C11.6546 14.8509 11.4497 14.5759 11.309 14.2674C11.1682 13.9589 11.0949 13.624 11.0938 13.2849C11.094 12.9188 11.1784 12.5576 11.3405 12.2293C11.5025 11.901 11.7379 11.6144 12.0284 11.3915C12.3189 11.1687 12.6567 11.0157 13.0158 10.9442C13.3749 10.8727 13.7456 10.8848 14.0992 10.9794L18.6512 6.42587V4.61685C18.6512 4.24772 18.7976 3.89292 19.0585 3.63199L21.2446 1.44589C21.2956 1.39518 21.3593 1.35923 21.4291 1.34186C21.4988 1.32449 21.572 1.32635 21.6408 1.34725C21.7824 1.38861 21.8874 1.50635 21.916 1.64955L22.449 4.31614Z" fill="#FFA178"/>
<path d="M3.93417 13.2837C3.9358 14.6487 4.23017 15.9976 4.79742 17.2392C5.36466 18.4808 6.19159 19.5863 7.22242 20.4812C8.25326 21.376 9.46401 22.0394 10.773 22.4266C12.082 22.8137 13.4588 22.9156 14.8106 22.7254C16.1623 22.5352 17.4576 22.0573 18.6089 21.324C19.7602 20.5907 20.7409 19.6189 21.4848 18.4744C22.2287 17.3298 22.7184 16.039 22.921 14.689C23.1236 13.3391 23.0343 11.9614 22.6592 10.6489C22.6065 10.4956 22.5856 10.3331 22.5977 10.1714C22.6099 10.0098 22.6548 9.85225 22.7297 9.70847C22.8046 9.5647 22.9081 9.43768 23.0337 9.33515C23.1593 9.23263 23.3044 9.15673 23.4603 9.11209C23.6161 9.06745 23.7795 9.05499 23.9403 9.07549C24.1011 9.09598 24.2561 9.14899 24.3958 9.23129C24.5355 9.31359 24.657 9.42346 24.7528 9.55421C24.8487 9.68495 24.917 9.83385 24.9535 9.99182C25.6798 12.5336 25.5419 15.2445 24.5612 17.6994C23.5806 20.1542 21.8127 22.2141 19.535 23.5558C17.2574 24.8975 14.5987 25.4452 11.9762 25.1128C9.35368 24.7804 6.91569 23.5869 5.04472 21.7194C3.17578 19.8489 1.98096 17.4107 1.64784 14.7876C1.31472 12.1645 1.86217 9.50498 3.20423 7.22669C4.54629 4.94841 6.60698 3.18033 9.06274 2.20005C11.5185 1.21977 14.2303 1.08281 16.7723 1.81066C17.075 1.89914 17.3304 2.10384 17.4826 2.38002C17.6348 2.6562 17.6715 2.9814 17.5847 3.28456C17.4978 3.58773 17.2945 3.84419 17.0192 3.99792C16.7439 4.15164 16.4189 4.19012 16.1152 4.10495C14.6937 3.69711 13.197 3.62503 11.7429 3.8944C10.2888 4.16376 8.91717 4.76721 7.73612 5.65717C6.55506 6.54712 5.59688 7.69926 4.9371 9.02274C4.27732 10.3462 3.93399 11.8049 3.93417 13.2837Z" fill="#FFA178"/>
<path d="M8.70764 13.2862C8.70774 14.1559 8.94526 15.009 9.3946 15.7536C9.84394 16.4982 10.488 17.1059 11.2574 17.5113C12.0268 17.9167 12.8922 18.1044 13.7604 18.054C14.6286 18.0037 15.4666 17.7173 16.184 17.2257C16.9012 16.7328 17.4701 16.0533 17.829 15.2605C18.1879 14.4678 18.3233 13.5919 18.2205 12.7278C18.1927 12.5181 18.2213 12.3048 18.3033 12.1098C18.3854 11.9148 18.5179 11.7452 18.6872 11.6185C18.8566 11.4917 19.0567 11.4124 19.2669 11.3887C19.4771 11.365 19.6898 11.3978 19.8832 11.4836C20.0764 11.5683 20.2438 11.7028 20.3682 11.8733C20.4926 12.0438 20.5695 12.2442 20.5912 12.4541C20.764 13.9308 20.4729 15.4246 19.7583 16.7283C19.0436 18.032 17.9408 19.0809 16.603 19.7294C15.2651 20.3779 13.7586 20.5938 12.2924 20.3472C10.8263 20.1006 9.47327 19.4037 8.4212 18.3532C7.36912 17.3027 6.67015 15.9508 6.42131 14.485C6.17248 13.0192 6.38611 11.5124 7.03257 10.1735C7.67902 8.83469 8.72623 7.7303 10.0288 7.01365C11.3314 6.297 12.8248 6.00364 14.3018 6.17427C14.4599 6.18895 14.6135 6.23504 14.7536 6.30985C14.8937 6.38467 15.0175 6.4867 15.1176 6.60996C15.2178 6.73322 15.2923 6.87523 15.3369 7.02768C15.3814 7.18012 15.3951 7.33992 15.3771 7.49772C15.3591 7.65552 15.3098 7.80814 15.232 7.94663C15.1543 8.08511 15.0497 8.20669 14.9243 8.30422C14.799 8.40175 14.6554 8.47329 14.5021 8.51462C14.3487 8.55595 14.1887 8.56626 14.0313 8.54493C13.3625 8.46728 12.6849 8.53199 12.0429 8.73482C11.4009 8.93765 10.809 9.274 10.3062 9.72179C9.80346 10.1696 9.4011 10.7187 9.12558 11.333C8.85007 11.9473 8.70764 12.613 8.70764 13.2862Z" fill="#FFA178"/>
</g>
<defs>
<filter id="filter0_i_2191_6030" x="0.751953" y="0.554688" width="25.457" height="26.9328" filterUnits="userSpaceOnUse" color-interpolation-filters="sRGB">
<feFlood flood-opacity="0" result="BackgroundImageFix"/>
<feBlend mode="normal" in="SourceGraphic" in2="BackgroundImageFix" result="shape"/>
<feColorMatrix in="SourceAlpha" type="matrix" values="0 0 0 0 0 0 0 0 0 0 0 0 0 0 0 0 0 0 127 0" result="hardAlpha"/>
<feOffset dy="1.47575"/>
<feGaussianBlur stdDeviation="0.737877"/>
<feComposite in2="hardAlpha" operator="arithmetic" k2="-1" k3="1"/>
<feColorMatrix type="matrix" values="0 0 0 0 0 0 0 0 0 0 0 0 0 0 0 0 0 0 0.25 0"/>
<feBlend mode="normal" in2="shape" result="effect1_innerShadow_2191_6030"/>
</filter>
</defs>
</svg>
