<svg width="25" height="25" viewBox="0 0 25 25" fill="none" xmlns="http://www.w3.org/2000/svg">
<g filter="url(#filter0_i_2191_3393)">
<g clip-path="url(#clip0_2191_3393)">
<path d="M21.3131 3.75297H21.3115L23.9095 4.27225C24.049 4.30016 24.1637 4.40246 24.204 4.54042C24.2244 4.60744 24.2262 4.67872 24.2093 4.74668C24.1923 4.81464 24.1573 4.87675 24.1079 4.9264L21.9796 7.05624C21.725 7.3104 21.3799 7.45313 21.0201 7.45307H19.2561L14.8228 11.8879C14.9074 12.2073 14.9229 12.541 14.8684 12.8668C14.8139 13.1927 14.6906 13.5031 14.5067 13.7776C14.3228 14.052 14.0825 14.2841 13.8019 14.4584C13.5212 14.6327 13.2066 14.7452 12.8791 14.7884C12.5516 14.8316 12.2186 14.8045 11.9024 14.7089C11.5861 14.6133 11.2939 14.4514 11.0451 14.234C10.7964 14.0166 10.5968 13.7487 10.4597 13.4482C10.3226 13.1476 10.2511 12.8213 10.25 12.4909C10.2502 12.1342 10.3325 11.7823 10.4904 11.4625C10.6483 11.1427 10.8776 10.8634 11.1606 10.6463C11.4436 10.4292 11.7728 10.2801 12.1226 10.2105C12.4724 10.1409 12.8336 10.1526 13.1781 10.2448L17.613 5.80841V4.04594C17.613 3.68631 17.7556 3.34064 18.0098 3.08642L20.1397 0.956583C20.1893 0.90718 20.2514 0.872155 20.3194 0.855232C20.3873 0.838309 20.4586 0.840122 20.5256 0.860477C20.6636 0.90078 20.7659 1.01549 20.7938 1.155L21.3131 3.75297Z" fill="#999999" fill-opacity="0.8"/>
<path d="M3.27327 12.4903C3.27487 13.8202 3.56166 15.1343 4.11431 16.344C4.66696 17.5536 5.47261 18.6307 6.47691 19.5025C7.48122 20.3744 8.66082 21.0207 9.93614 21.3979C11.2115 21.775 12.5528 21.8743 13.8698 21.689C15.1868 21.5037 16.4487 21.0381 17.5704 20.3236C18.6921 19.6092 19.6475 18.6625 20.3723 17.5473C21.097 16.4322 21.5741 15.1747 21.7715 13.8595C21.9689 12.5443 21.8819 11.202 21.5164 9.92329C21.4651 9.77389 21.4448 9.61562 21.4566 9.4581C21.4684 9.30058 21.5121 9.14711 21.5851 9.00704C21.6581 8.86697 21.7589 8.74322 21.8813 8.64333C22.0036 8.54344 22.1451 8.4695 22.2969 8.426C22.4488 8.38251 22.6079 8.37038 22.7646 8.39034C22.9213 8.41031 23.0723 8.46196 23.2084 8.54214C23.3445 8.62232 23.4628 8.72936 23.5562 8.85674C23.6496 8.98413 23.7161 9.12919 23.7517 9.28309C24.4593 11.7594 24.3249 14.4006 23.3695 16.7923C22.4141 19.184 20.6917 21.1909 18.4727 22.498C16.2536 23.8052 13.6634 24.3388 11.1083 24.015C8.55332 23.6912 6.17807 22.5283 4.35525 20.7089C2.53441 18.8865 1.37033 16.5111 1.04578 13.9554C0.721235 11.3998 1.25459 8.80879 2.56212 6.58913C3.86965 4.36947 5.8773 2.64689 8.26987 1.69184C10.6624 0.736785 13.3044 0.603344 15.7811 1.31246C16.076 1.39867 16.3247 1.5981 16.473 1.86717C16.6213 2.13625 16.6571 2.45308 16.5725 2.74844C16.4879 3.0438 16.2898 3.29367 16.0216 3.44344C15.7533 3.5932 15.4367 3.63069 15.1409 3.54771C13.756 3.15037 12.2977 3.08015 10.8811 3.34258C9.46439 3.60502 8.12805 4.19294 6.97739 5.05999C5.82673 5.92705 4.8932 7.04953 4.2504 8.33896C3.6076 9.62838 3.2731 11.0495 3.27327 12.4903Z" fill="#999999" fill-opacity="0.8"/>
<path d="M7.9255 12.4926C7.9256 13.3399 8.15701 14.1711 8.59478 14.8965C9.03256 15.6219 9.66008 16.214 10.4097 16.609C11.1592 17.004 12.0024 17.1868 12.8483 17.1377C13.6941 17.0887 14.5105 16.8096 15.2094 16.3307C15.9082 15.8505 16.4624 15.1885 16.8121 14.4161C17.1618 13.6437 17.2937 12.7905 17.1936 11.9486C17.1665 11.7443 17.1943 11.5364 17.2743 11.3465C17.3542 11.1565 17.4833 10.9913 17.6483 10.8678C17.8133 10.7443 18.0082 10.6671 18.213 10.644C18.4178 10.6209 18.6251 10.6528 18.8134 10.7364C19.0018 10.8189 19.1648 10.9499 19.286 11.116C19.4072 11.2821 19.4821 11.4774 19.5032 11.6819C19.6717 13.1206 19.388 14.576 18.6918 15.8461C17.9955 17.1163 16.9211 18.1382 15.6176 18.77C14.3142 19.4018 12.8464 19.6121 11.418 19.3719C9.98962 19.1316 8.67143 18.4526 7.64643 17.4292C6.62142 16.4057 5.94045 15.0886 5.69801 13.6605C5.45558 12.2325 5.66372 10.7644 6.29353 9.46002C6.92335 8.15563 7.94361 7.07967 9.2127 6.38146C10.4818 5.68325 11.9368 5.39744 13.3757 5.56368C13.5297 5.57798 13.6794 5.62288 13.8159 5.69577C13.9524 5.76866 14.073 5.86806 14.1705 5.98815C14.2681 6.10824 14.3407 6.2466 14.3841 6.39512C14.4276 6.54364 14.4409 6.69934 14.4233 6.85307C14.4058 7.00681 14.3577 7.1555 14.282 7.29042C14.2062 7.42535 14.1043 7.54379 13.9822 7.63882C13.8601 7.73384 13.7202 7.80353 13.5708 7.8438C13.4214 7.88407 13.2655 7.89411 13.1121 7.87333C12.4606 7.79768 11.8004 7.86073 11.1749 8.05834C10.5494 8.25594 9.97281 8.58364 9.48297 9.0199C8.99312 9.45617 8.60112 9.99113 8.33269 10.5896C8.06427 11.1882 7.9255 11.8367 7.9255 12.4926Z" fill="#999999" fill-opacity="0.8"/>
</g>
</g>
<defs>
<filter id="filter0_i_2191_3393" x="0.173828" y="0.0898438" width="24.8008" height="26.2386" filterUnits="userSpaceOnUse" color-interpolation-filters="sRGB">
<feFlood flood-opacity="0" result="BackgroundImageFix"/>
<feBlend mode="normal" in="SourceGraphic" in2="BackgroundImageFix" result="shape"/>
<feColorMatrix in="SourceAlpha" type="matrix" values="0 0 0 0 0 0 0 0 0 0 0 0 0 0 0 0 0 0 127 0" result="hardAlpha"/>
<feOffset dy="1.43778"/>
<feGaussianBlur stdDeviation="0.718888"/>
<feComposite in2="hardAlpha" operator="arithmetic" k2="-1" k3="1"/>
<feColorMatrix type="matrix" values="0 0 0 0 0 0 0 0 0 0 0 0 0 0 0 0 0 0 0.25 0"/>
<feBlend mode="normal" in2="shape" result="effect1_innerShadow_2191_3393"/>
</filter>
<clipPath id="clip0_2191_3393">
<rect width="24.8016" height="24.8016" fill="white" transform="translate(0.173828 0.0898438)"/>
</clipPath>
</defs>
</svg>
