<svg width="24" height="26" viewBox="0 0 24 26" fill="none" xmlns="http://www.w3.org/2000/svg">
<g filter="url(#filter0_i_2191_3398)">
<path d="M21.9032 2.02531H18.9827V1.05758C18.9827 0.800919 18.8802 0.554772 18.6976 0.373287C18.515 0.191801 18.2674 0.0898438 18.0092 0.0898438C17.751 0.0898438 17.5034 0.191801 17.3209 0.373287C17.1383 0.554772 17.0357 0.800919 17.0357 1.05758V2.02531H7.30079V1.05758C7.30079 0.800919 7.19823 0.554772 7.01566 0.373287C6.83309 0.191801 6.58548 0.0898438 6.3273 0.0898438C6.06911 0.0898438 5.8215 0.191801 5.63893 0.373287C5.45637 0.554772 5.3538 0.800919 5.3538 1.05758V2.02531H2.43332C1.91694 2.02531 1.42172 2.22923 1.05659 2.5922C0.691457 2.95517 0.486328 3.44746 0.486328 3.96078V23.3155C0.486328 23.8288 0.691457 24.3211 1.05659 24.684C1.42172 25.047 1.91694 25.2509 2.43332 25.2509H21.9032C22.4196 25.2509 22.9148 25.047 23.2799 24.684C23.6451 24.3211 23.8502 23.8288 23.8502 23.3155V3.96078C23.8502 3.44746 23.6451 2.95517 23.2799 2.5922C22.9148 2.22923 22.4196 2.02531 21.9032 2.02531ZM5.3538 3.96078V4.92852C5.3538 5.18517 5.45637 5.43132 5.63893 5.61281C5.8215 5.79429 6.06911 5.89625 6.3273 5.89625C6.58548 5.89625 6.83309 5.79429 7.01566 5.61281C7.19823 5.43132 7.30079 5.18517 7.30079 4.92852V3.96078H17.0357V4.92852C17.0357 5.18517 17.1383 5.43132 17.3209 5.61281C17.5034 5.79429 17.751 5.89625 18.0092 5.89625C18.2674 5.89625 18.515 5.79429 18.6976 5.61281C18.8802 5.43132 18.9827 5.18517 18.9827 4.92852V3.96078H21.9032V7.83172H2.43332V3.96078H5.3538ZM21.9032 23.3155H2.43332V9.76719H21.9032V23.3155ZM10.2213 12.6704V20.4123C10.2213 20.6689 10.1187 20.9151 9.93614 21.0966C9.75358 21.278 9.50597 21.38 9.24778 21.38C8.98959 21.38 8.74198 21.278 8.55941 21.0966C8.37685 20.9151 8.27428 20.6689 8.27428 20.4123V14.2357L7.73643 14.5042C7.50535 14.6191 7.23784 14.638 6.99275 14.5568C6.74765 14.4756 6.54505 14.3009 6.42951 14.0712C6.31397 13.8415 6.29496 13.5755 6.37666 13.3319C6.45836 13.0883 6.63407 12.8869 6.86515 12.772L8.81214 11.8043C8.96061 11.7304 9.12562 11.6955 9.29148 11.7029C9.45733 11.7103 9.61853 11.7598 9.75974 11.8466C9.90095 11.9334 10.0175 12.0546 10.0983 12.1988C10.179 12.343 10.2214 12.5053 10.2213 12.6704ZM17.4203 16.3538L15.0887 19.4445H17.0357C17.2939 19.4445 17.5415 19.5465 17.7241 19.728C17.9067 19.9095 18.0092 20.1556 18.0092 20.4123C18.0092 20.6689 17.9067 20.9151 17.7241 21.0966C17.5415 21.278 17.2939 21.38 17.0357 21.38H13.1418C12.961 21.38 12.7837 21.33 12.63 21.2355C12.4762 21.141 12.3519 21.0058 12.271 20.845C12.1902 20.6843 12.156 20.5043 12.1722 20.3254C12.1884 20.1464 12.2545 19.9754 12.363 19.8316L15.8651 15.1901C15.9448 15.0847 16.0019 14.9642 16.033 14.836C16.0642 14.7079 16.0686 14.5747 16.0461 14.4448C16.0236 14.3149 15.9747 14.1909 15.9022 14.0804C15.8298 13.97 15.7354 13.8754 15.6249 13.8025C15.5144 13.7296 15.39 13.6799 15.2595 13.6565C15.129 13.6331 14.995 13.6365 14.8659 13.6664C14.7367 13.6963 14.615 13.7522 14.5083 13.8305C14.4016 13.9089 14.3122 14.008 14.2455 14.122C14.1834 14.2356 14.0991 14.3356 13.9976 14.4163C13.896 14.4969 13.7792 14.5566 13.6541 14.5916C13.529 14.6267 13.398 14.6365 13.2691 14.6204C13.1401 14.6044 13.0156 14.5628 12.903 14.4982C12.7905 14.4335 12.6921 14.3471 12.6136 14.2441C12.5352 14.141 12.4783 14.0234 12.4463 13.8981C12.4144 13.7729 12.408 13.6425 12.4275 13.5148C12.4471 13.387 12.4921 13.2644 12.5601 13.1543C12.8817 12.6011 13.3778 12.1688 13.9717 11.9244C14.5655 11.68 15.2239 11.6372 15.8447 11.8026C16.4655 11.9679 17.0141 12.3323 17.4054 12.8391C17.7968 13.3459 18.009 13.9669 18.0092 14.6059C18.0113 15.237 17.8043 15.8513 17.4203 16.3538Z" fill="#FFA178"/>
</g>
<defs>
<filter id="filter0_i_2191_3398" x="0.486328" y="0.0898438" width="23.3633" height="26.5979" filterUnits="userSpaceOnUse" color-interpolation-filters="sRGB">
<feFlood flood-opacity="0" result="BackgroundImageFix"/>
<feBlend mode="normal" in="SourceGraphic" in2="BackgroundImageFix" result="shape"/>
<feColorMatrix in="SourceAlpha" type="matrix" values="0 0 0 0 0 0 0 0 0 0 0 0 0 0 0 0 0 0 127 0" result="hardAlpha"/>
<feOffset dy="1.43778"/>
<feGaussianBlur stdDeviation="0.718888"/>
<feComposite in2="hardAlpha" operator="arithmetic" k2="-1" k3="1"/>
<feColorMatrix type="matrix" values="0 0 0 0 0 0 0 0 0 0 0 0 0 0 0 0 0 0 0.25 0"/>
<feBlend mode="normal" in2="shape" result="effect1_innerShadow_2191_3398"/>
</filter>
</defs>
</svg>
