<svg width="25" height="27" viewBox="0 0 25 27" fill="none" xmlns="http://www.w3.org/2000/svg">
<g filter="url(#filter0_i_2191_6035)">
<path d="M22.2209 2.54128H19.2232V1.54798C19.2232 1.28454 19.118 1.0319 18.9306 0.845617C18.7432 0.659338 18.489 0.554688 18.224 0.554688C17.959 0.554688 17.7049 0.659338 17.5175 0.845617C17.3301 1.0319 17.2248 1.28454 17.2248 1.54798V2.54128H7.23274V1.54798C7.23274 1.28454 7.12746 1.0319 6.94007 0.845617C6.75269 0.659338 6.49853 0.554688 6.23353 0.554688C5.96852 0.554688 5.71437 0.659338 5.52698 0.845617C5.33959 1.0319 5.23432 1.28454 5.23432 1.54798V2.54128H2.2367C1.70668 2.54128 1.19838 2.75058 0.823604 3.12314C0.448828 3.49569 0.238281 4.00099 0.238281 4.52787V24.3938C0.238281 24.9207 0.448828 25.4259 0.823604 25.7985C1.19838 26.1711 1.70668 26.3804 2.2367 26.3804H22.2209C22.7509 26.3804 23.2592 26.1711 23.6339 25.7985C24.0087 25.4259 24.2193 24.9207 24.2193 24.3938V4.52787C24.2193 4.00099 24.0087 3.49569 23.6339 3.12314C23.2592 2.75058 22.7509 2.54128 22.2209 2.54128ZM5.23432 4.52787V5.52116C5.23432 5.7846 5.33959 6.03725 5.52698 6.22353C5.71437 6.40981 5.96852 6.51446 6.23353 6.51446C6.49853 6.51446 6.75269 6.40981 6.94007 6.22353C7.12746 6.03725 7.23274 5.7846 7.23274 5.52116V4.52787H17.2248V5.52116C17.2248 5.7846 17.3301 6.03725 17.5175 6.22353C17.7049 6.40981 17.959 6.51446 18.224 6.51446C18.489 6.51446 18.7432 6.40981 18.9306 6.22353C19.118 6.03725 19.2232 5.7846 19.2232 5.52116V4.52787H22.2209V8.50105H2.2367V4.52787H5.23432ZM22.2209 24.3938H2.2367V10.4876H22.2209V24.3938ZM10.2304 13.4675V21.4139C10.2304 21.6773 10.1251 21.93 9.9377 22.1163C9.75031 22.3025 9.49616 22.4072 9.23115 22.4072C8.96615 22.4072 8.71199 22.3025 8.5246 22.1163C8.33722 21.93 8.23194 21.6773 8.23194 21.4139V15.0742L7.67988 15.3498C7.4427 15.4677 7.16812 15.4871 6.91656 15.4037C6.66499 15.3204 6.45703 15.1411 6.33844 14.9053C6.21985 14.6695 6.20034 14.3966 6.2842 14.1465C6.36805 13.8964 6.54841 13.6897 6.78559 13.5718L8.78401 12.5785C8.9364 12.5027 9.10577 12.4669 9.276 12.4745C9.44624 12.4821 9.61169 12.5329 9.75663 12.622C9.90158 12.7111 10.0212 12.8355 10.1041 12.9835C10.187 13.1315 10.2305 13.2981 10.2304 13.4675ZM17.6195 17.2483L15.2264 20.4206H17.2248C17.4898 20.4206 17.744 20.5252 17.9314 20.7115C18.1187 20.8978 18.224 21.1505 18.224 21.4139C18.224 21.6773 18.1187 21.93 17.9314 22.1163C17.744 22.3025 17.4898 22.4072 17.2248 22.4072H13.228C13.0424 22.4072 12.8605 22.3558 12.7027 22.2588C12.5448 22.1619 12.4173 22.0231 12.3343 21.8581C12.2513 21.6931 12.2161 21.5084 12.2328 21.3247C12.2495 21.141 12.3173 20.9655 12.4286 20.8179L16.0233 16.0538C16.105 15.9456 16.1637 15.8219 16.1956 15.6904C16.2276 15.5588 16.2322 15.4222 16.2091 15.2888C16.186 15.1554 16.1357 15.0282 16.0614 14.9148C15.987 14.8014 15.8902 14.7044 15.7767 14.6295C15.6633 14.5547 15.5357 14.5037 15.4017 14.4797C15.2677 14.4557 15.1302 14.4592 14.9976 14.4899C14.865 14.5206 14.7402 14.5779 14.6307 14.6583C14.5212 14.7387 14.4293 14.8405 14.3608 14.9575C14.2972 15.074 14.2106 15.1767 14.1064 15.2595C14.0021 15.3423 13.8823 15.4035 13.7538 15.4395C13.6254 15.4755 13.491 15.4855 13.3586 15.4691C13.2262 15.4526 13.0985 15.4099 12.983 15.3436C12.8674 15.2772 12.7664 15.1886 12.6859 15.0828C12.6054 14.977 12.547 14.8563 12.5142 14.7277C12.4814 14.5991 12.4748 14.4653 12.4949 14.3342C12.5149 14.2031 12.5612 14.0772 12.631 13.9642C12.961 13.3964 13.4703 12.9527 14.0798 12.7018C14.6894 12.451 15.3651 12.407 16.0023 12.5768C16.6395 12.7465 17.2026 13.1205 17.6043 13.6407C18.006 14.1609 18.2238 14.7983 18.224 15.4541C18.2261 16.1019 18.0137 16.7324 17.6195 17.2483Z" fill="#999999" fill-opacity="0.8"/>
</g>
<defs>
<filter id="filter0_i_2191_6035" x="0.238281" y="0.554688" width="23.9805" height="27.3019" filterUnits="userSpaceOnUse" color-interpolation-filters="sRGB">
<feFlood flood-opacity="0" result="BackgroundImageFix"/>
<feBlend mode="normal" in="SourceGraphic" in2="BackgroundImageFix" result="shape"/>
<feColorMatrix in="SourceAlpha" type="matrix" values="0 0 0 0 0 0 0 0 0 0 0 0 0 0 0 0 0 0 127 0" result="hardAlpha"/>
<feOffset dy="1.47575"/>
<feGaussianBlur stdDeviation="0.737877"/>
<feComposite in2="hardAlpha" operator="arithmetic" k2="-1" k3="1"/>
<feColorMatrix type="matrix" values="0 0 0 0 0 0 0 0 0 0 0 0 0 0 0 0 0 0 0.25 0"/>
<feBlend mode="normal" in2="shape" result="effect1_innerShadow_2191_6035"/>
</filter>
</defs>
</svg>
