<svg width="24" height="24" viewBox="0 0 24 24" fill="none" xmlns="http://www.w3.org/2000/svg">
<g filter="url(#filter0_i_2191_3399)">
<path d="M12.0433 0.0898438C5.59212 0.0898438 0.361328 5.32064 0.361328 11.7718C0.361328 18.2229 5.59212 23.4537 12.0433 23.4537C18.4944 23.4537 23.7252 18.2229 23.7252 11.7718C23.7252 5.32064 18.4944 0.0898438 12.0433 0.0898438ZM6.2023 9.39889C6.20898 9.07136 6.34379 8.7595 6.57779 8.53022C6.81179 8.30095 7.12633 8.17254 7.45393 8.17254C7.78153 8.17254 8.09608 8.30095 8.33008 8.53022C8.56408 8.7595 8.69888 9.07136 8.70557 9.39889C8.69888 9.72642 8.56408 10.0383 8.33008 10.2675C8.09608 10.4968 7.78153 10.6252 7.45393 10.6252C7.12633 10.6252 6.81179 10.4968 6.57779 10.2675C6.34379 10.0383 6.20898 9.72642 6.2023 9.39889ZM12.0433 16.4915C9.81379 16.4915 7.98588 14.7366 7.87114 12.5384C7.86973 12.5101 7.87408 12.4819 7.88393 12.4554C7.89377 12.4288 7.90892 12.4046 7.92843 12.3841C7.94794 12.3636 7.97142 12.3473 7.99743 12.3362C8.02345 12.3251 8.05145 12.3193 8.07975 12.3194H9.33399C9.44351 12.3194 9.53738 12.4028 9.54521 12.5123C9.64429 13.8031 10.7264 14.8226 12.0433 14.8226C13.3601 14.8226 14.4448 13.8031 14.5413 12.5123C14.5491 12.4028 14.643 12.3194 14.7525 12.3194H16.0068C16.0351 12.3193 16.0631 12.3251 16.0891 12.3362C16.1151 12.3473 16.1386 12.3636 16.1581 12.3841C16.1776 12.4046 16.1928 12.4288 16.2026 12.4554C16.2124 12.4819 16.2168 12.5101 16.2154 12.5384C16.1007 14.7366 14.2727 16.4915 12.0433 16.4915ZM16.6326 10.6505C16.3051 10.6438 15.9932 10.509 15.7639 10.275C15.5347 10.041 15.4062 9.72648 15.4062 9.39889C15.4062 9.07129 15.5347 8.75674 15.7639 8.52274C15.9932 8.28874 16.3051 8.15394 16.6326 8.14725C16.9601 8.15394 17.272 8.28874 17.5013 8.52274C17.7305 8.75674 17.8589 9.07129 17.8589 9.39889C17.8589 9.72648 17.7305 10.041 17.5013 10.275C17.272 10.509 16.9601 10.6438 16.6326 10.6505Z" fill="#FFA178"/>
</g>
<defs>
<filter id="filter0_i_2191_3399" x="0.361328" y="0.0898438" width="23.3633" height="24.0822" filterUnits="userSpaceOnUse" color-interpolation-filters="sRGB">
<feFlood flood-opacity="0" result="BackgroundImageFix"/>
<feBlend mode="normal" in="SourceGraphic" in2="BackgroundImageFix" result="shape"/>
<feColorMatrix in="SourceAlpha" type="matrix" values="0 0 0 0 0 0 0 0 0 0 0 0 0 0 0 0 0 0 127 0" result="hardAlpha"/>
<feOffset dy="0.718888"/>
<feGaussianBlur stdDeviation="0.359444"/>
<feComposite in2="hardAlpha" operator="arithmetic" k2="-1" k3="1"/>
<feColorMatrix type="matrix" values="0 0 0 0 0 0 0 0 0 0 0 0 0 0 0 0 0 0 0.25 0"/>
<feBlend mode="normal" in2="shape" result="effect1_innerShadow_2191_3399"/>
</filter>
</defs>
</svg>
