<svg width="25" height="25" viewBox="0 0 25 25" fill="none" xmlns="http://www.w3.org/2000/svg">
<g filter="url(#filter0_i_2191_6036)">
<path d="M12.2405 0.554688C5.61896 0.554688 0.25 5.92365 0.25 12.5452C0.25 19.1667 5.61896 24.5357 12.2405 24.5357C18.862 24.5357 24.231 19.1667 24.231 12.5452C24.231 5.92365 18.862 0.554688 12.2405 0.554688ZM6.24525 10.1096C6.25211 9.77343 6.39048 9.45333 6.63066 9.21801C6.87084 8.98268 7.19369 8.85087 7.52994 8.85087C7.86619 8.85087 8.18905 8.98268 8.42923 9.21801C8.66941 9.45333 8.80778 9.77343 8.81464 10.1096C8.80778 10.4458 8.66941 10.7659 8.42923 11.0012C8.18905 11.2365 7.86619 11.3684 7.52994 11.3684C7.19369 11.3684 6.87084 11.2365 6.63066 11.0012C6.39048 10.7659 6.25211 10.4458 6.24525 10.1096ZM12.2405 17.3896C9.95213 17.3896 8.07594 15.5883 7.95817 13.3321C7.95672 13.3031 7.96119 13.2741 7.97129 13.2468C7.9814 13.2196 7.99694 13.1947 8.01697 13.1737C8.037 13.1527 8.0611 13.1359 8.0878 13.1245C8.1145 13.1131 8.14325 13.1072 8.17229 13.1072H9.45966C9.57207 13.1072 9.66843 13.1929 9.67646 13.3053C9.77816 14.6301 10.8889 15.6766 12.2405 15.6766C13.5921 15.6766 14.7055 14.6301 14.8045 13.3053C14.8126 13.1929 14.9089 13.1072 15.0213 13.1072H16.3087C16.3377 13.1072 16.3665 13.1131 16.3932 13.1245C16.4199 13.1359 16.444 13.1527 16.464 13.1737C16.484 13.1947 16.4996 13.2196 16.5097 13.2468C16.5198 13.2741 16.5243 13.3031 16.5228 13.3321C16.405 15.5883 14.5289 17.3896 12.2405 17.3896ZM16.951 11.3943C16.6149 11.3874 16.2948 11.2491 16.0594 11.0089C15.8241 10.7687 15.6923 10.4459 15.6923 10.1096C15.6923 9.77336 15.8241 9.45051 16.0594 9.21033C16.2948 8.97015 16.6149 8.83178 16.951 8.82492C17.2872 8.83178 17.6073 8.97015 17.8427 9.21033C18.078 9.45051 18.2098 9.77336 18.2098 10.1096C18.2098 10.4459 18.078 10.7687 17.8427 11.0089C17.6073 11.2491 17.2872 11.3874 16.951 11.3943Z" fill="#999999" fill-opacity="0.8"/>
</g>
<defs>
<filter id="filter0_i_2191_6036" x="0.25" y="0.554688" width="23.9805" height="24.7183" filterUnits="userSpaceOnUse" color-interpolation-filters="sRGB">
<feFlood flood-opacity="0" result="BackgroundImageFix"/>
<feBlend mode="normal" in="SourceGraphic" in2="BackgroundImageFix" result="shape"/>
<feColorMatrix in="SourceAlpha" type="matrix" values="0 0 0 0 0 0 0 0 0 0 0 0 0 0 0 0 0 0 127 0" result="hardAlpha"/>
<feOffset dy="0.737877"/>
<feGaussianBlur stdDeviation="0.368938"/>
<feComposite in2="hardAlpha" operator="arithmetic" k2="-1" k3="1"/>
<feColorMatrix type="matrix" values="0 0 0 0 0 0 0 0 0 0 0 0 0 0 0 0 0 0 0.25 0"/>
<feBlend mode="normal" in2="shape" result="effect1_innerShadow_2191_6036"/>
</filter>
</defs>
</svg>
